# xmcd
#
# Track frame offsets:
#	150
#	13309
#	32049
#	47629
#	62703
#	77162
#	91759
#	104871
#	125798
#	138921
#	157707
#	173288
#	188169
#	202628
#	217177
#	230350
#
# Disc length: 3346 seconds
#
# Revision: 2
# Processed by: cddbd v1.5.2PL0 Copyright (c) Steve Scherf et al.
# Submitted via: audiograbber 1.83.01
#
DISCID=d10d1010
DTITLE=JOHNNY CASH - Open Mike 2226
DYEAR=1900
DGENRE=Karaoke
TTITLE0=HEY PORTER
TTITLE1=A BOY NAMED SUE
TTITLE2=FOLSOM PRISON BLUES
TTITLE3=I WALK THE LINE
TTITLE4=HOME OF THE BLUES
TTITLE5=RING OF FIRE
TTITLE6=GET RHYTHM
TTITLE7=SUNDAY MORNIN COMING DOWN
TTITLE8=HEY PORTER w/vocals
TTITLE9=A BOY NAMED SUE w/ vocals
TTITLE10=FOLSOM PRISON BLUES w/ vocals
TTITLE11=I WALK THE LINE w/ vocals
TTITLE12=HOME OF THE BLUES w/ vocals
TTITLE13=RING OF FIRE w/ vocals
TTITLE14=GET RHYTHM w/ vocals
TTITLE15=SUNDAY MORNIN COMING DOWN w/ vocals
EXTD=
EXTT0=
EXTT1=
EXTT2=
EXTT3=
EXTT4=
EXTT5=
EXTT6=
EXTT7=
EXTT8=
EXTT9=
EXTT10=
EXTT11=
EXTT12=
EXTT13=
EXTT14=
EXTT15=
PLAYORDER=
